<?xml version="1.0" encoding="UTF-8" standalone="no"?>
<!DOCTYPE svg PUBLIC "-//W3C//DTD SVG 1.1//EN"
 "http://www.w3.org/Graphics/SVG/1.1/DTD/svg11.dtd">
<!-- Generated by graphviz version 2.40.1 (20161225.0304)
 -->
<!-- Title: %3 Pages: 1 -->
<svg width="5817pt" height="548pt"
 viewBox="0.00 0.00 5817.15 548.00" xmlns="http://www.w3.org/2000/svg" xmlns:xlink="http://www.w3.org/1999/xlink">
<g id="graph0" class="graph" transform="scale(1 1) rotate(0) translate(4 544)">
<title>%3</title>
<polygon fill="#ffffff" stroke="transparent" points="-4,4 -4,-544 5813.1498,-544 5813.1498,4 -4,4"/>
<!-- [root] data.archive_file.lambda -->
<g id="node1" class="node">
<title>[root] data.archive_file.lambda</title>
<polygon fill="none" stroke="#000000" points="5782.4827,-252 5589.4827,-252 5589.4827,-216 5782.4827,-216 5782.4827,-252"/>
<text text-anchor="middle" x="5685.9827" y="-230.3" font-family="Times,serif" font-size="14.00" fill="#000000">data.archive_file.lambda</text>
</g>
<!-- [root] provider.archive -->
<g id="node10" class="node">
<title>[root] provider.archive</title>
<polygon fill="none" stroke="#000000" points="5685.9827,-180 5562.6483,-162 5685.9827,-144 5809.3171,-162 5685.9827,-180"/>
<text text-anchor="middle" x="5685.9827" y="-158.3" font-family="Times,serif" font-size="14.00" fill="#000000">provider.archive</text>
</g>
<!-- [root] data.archive_file.lambda&#45;&gt;[root] provider.archive -->
<g id="edge1" class="edge">
<title>[root] data.archive_file.lambda&#45;&gt;[root] provider.archive</title>
<path fill="none" stroke="#000000" d="M5685.9827,-215.8314C5685.9827,-208.131 5685.9827,-198.9743 5685.9827,-190.4166"/>
<polygon fill="#000000" stroke="#000000" points="5689.4828,-190.4132 5685.9827,-180.4133 5682.4828,-190.4133 5689.4828,-190.4132"/>
</g>
<!-- [root] data.aws_caller_identity.current -->
<g id="node2" class="node">
<title>[root] data.aws_caller_identity.current</title>
<polygon fill="none" stroke="#000000" points="770.9827,-108 522.9827,-108 522.9827,-72 770.9827,-72 770.9827,-108"/>
<text text-anchor="middle" x="646.9827" y="-86.3" font-family="Times,serif" font-size="14.00" fill="#000000">data.aws_caller_identity.current</text>
</g>
<!-- [root] provider.aws -->
<g id="node11" class="node">
<title>[root] provider.aws</title>
<polygon fill="none" stroke="#000000" points="995.9827,-36 896.9442,-18 995.9827,0 1095.0212,-18 995.9827,-36"/>
<text text-anchor="middle" x="995.9827" y="-14.3" font-family="Times,serif" font-size="14.00" fill="#000000">provider.aws</text>
</g>
<!-- [root] data.aws_caller_identity.current&#45;&gt;[root] provider.aws -->
<g id="edge2" class="edge">
<title>[root] data.aws_caller_identity.current&#45;&gt;[root] provider.aws</title>
<path fill="none" stroke="#000000" d="M734.5997,-71.9243C798.8481,-58.6696 884.1933,-41.0626 939.5982,-29.6323"/>
<polygon fill="#000000" stroke="#000000" points="940.4967,-33.0208 949.5833,-27.5724 939.0823,-26.1651 940.4967,-33.0208"/>
</g>
<!-- [root] data.aws_region.current -->
<g id="node3" class="node">
<title>[root] data.aws_region.current</title>
<polygon fill="none" stroke="#000000" points="1091.9827,-108 899.9827,-108 899.9827,-72 1091.9827,-72 1091.9827,-108"/>
<text text-anchor="middle" x="995.9827" y="-86.3" font-family="Times,serif" font-size="14.00" fill="#000000">data.aws_region.current</text>
</g>
<!-- [root] data.aws_region.current&#45;&gt;[root] provider.aws -->
<g id="edge3" class="edge">
<title>[root] data.aws_region.current&#45;&gt;[root] provider.aws</title>
<path fill="none" stroke="#000000" d="M995.9827,-71.8314C995.9827,-64.131 995.9827,-54.9743 995.9827,-46.4166"/>
<polygon fill="#000000" stroke="#000000" points="999.4828,-46.4132 995.9827,-36.4133 992.4828,-46.4133 999.4828,-46.4132"/>
</g>
<!-- [root] module.lexlambda.aws_iam_role.withintent -->
<g id="node4" class="node">
<title>[root] module.lexlambda.aws_iam_role.withintent</title>
<polygon fill="none" stroke="#000000" points="2425.4827,-252 2098.4827,-252 2098.4827,-216 2425.4827,-216 2425.4827,-252"/>
<text text-anchor="middle" x="2261.9827" y="-230.3" font-family="Times,serif" font-size="14.00" fill="#000000">module.lexlambda.aws_iam_role.withintent</text>
</g>
<!-- [root] module.lexlambda.aws_iam_role.withintent&#45;&gt;[root] provider.aws -->
<g id="edge8" class="edge">
<title>[root] module.lexlambda.aws_iam_role.withintent&#45;&gt;[root] provider.aws</title>
<path fill="none" stroke="#000000" d="M2184.5151,-215.9688C2142.7341,-205.953 2090.368,-192.9309 2043.9827,-180 1991.9842,-165.5043 1980.5758,-156.163 1927.9827,-144 1724.231,-96.8794 1670.227,-100.0162 1462.9827,-72 1324.0217,-53.2147 1161.2384,-35.3217 1069.1988,-25.5845"/>
<polygon fill="#000000" stroke="#000000" points="1069.4631,-22.0931 1059.151,-24.5242 1068.7285,-29.0544 1069.4631,-22.0931"/>
</g>
<!-- [root] module.lexlambda.var.common_tags -->
<g id="node13" class="node">
<title>[root] module.lexlambda.var.common_tags</title>
<ellipse fill="none" stroke="#000000" cx="2261.9827" cy="-162" rx="208.7631" ry="18"/>
<text text-anchor="middle" x="2261.9827" y="-158.3" font-family="Times,serif" font-size="14.00" fill="#000000">[root] module.lexlambda.var.common_tags</text>
</g>
<!-- [root] module.lexlambda.aws_iam_role.withintent&#45;&gt;[root] module.lexlambda.var.common_tags -->
<g id="edge6" class="edge">
<title>[root] module.lexlambda.aws_iam_role.withintent&#45;&gt;[root] module.lexlambda.var.common_tags</title>
<path fill="none" stroke="#000000" d="M2261.9827,-215.8314C2261.9827,-208.131 2261.9827,-198.9743 2261.9827,-190.4166"/>
<polygon fill="#000000" stroke="#000000" points="2265.4828,-190.4132 2261.9827,-180.4133 2258.4828,-190.4133 2265.4828,-190.4132"/>
</g>
<!-- [root] module.lexlambda.var.role_name -->
<g id="node14" class="node">
<title>[root] module.lexlambda.var.role_name</title>
<ellipse fill="none" stroke="#000000" cx="1726.9827" cy="-162" rx="192.2659" ry="18"/>
<text text-anchor="middle" x="1726.9827" y="-158.3" font-family="Times,serif" font-size="14.00" fill="#000000">[root] module.lexlambda.var.role_name</text>
</g>
<!-- [root] module.lexlambda.aws_iam_role.withintent&#45;&gt;[root] module.lexlambda.var.role_name -->
<g id="edge7" class="edge">
<title>[root] module.lexlambda.aws_iam_role.withintent&#45;&gt;[root] module.lexlambda.var.role_name</title>
<path fill="none" stroke="#000000" d="M2128.0151,-215.9707C2041.7625,-204.3629 1930.5987,-189.4025 1847.1926,-178.1778"/>
<polygon fill="#000000" stroke="#000000" points="1847.5398,-174.693 1837.1623,-176.8279 1846.6061,-181.6305 1847.5398,-174.693"/>
</g>
<!-- [root] module.lexlambda.aws_iam_role_policy.withintent -->
<g id="node5" class="node">
<title>[root] module.lexlambda.aws_iam_role_policy.withintent</title>
<polygon fill="none" stroke="#000000" points="1682.9827,-324 1306.9827,-324 1306.9827,-288 1682.9827,-288 1682.9827,-324"/>
<text text-anchor="middle" x="1494.9827" y="-302.3" font-family="Times,serif" font-size="14.00" fill="#000000">module.lexlambda.aws_iam_role_policy.withintent</text>
</g>
<!-- [root] module.lexlambda.aws_iam_role_policy.withintent&#45;&gt;[root] module.lexlambda.aws_iam_role.withintent -->
<g id="edge9" class="edge">
<title>[root] module.lexlambda.aws_iam_role_policy.withintent&#45;&gt;[root] module.lexlambda.aws_iam_role.withintent</title>
<path fill="none" stroke="#000000" d="M1683.1934,-288.7993C1686.1441,-288.5309 1689.0755,-288.2643 1691.9827,-288 1865.5823,-272.2178 1911.5194,-269.3475 2087.9672,-252.1907"/>
<polygon fill="#000000" stroke="#000000" points="2088.5029,-255.6552 2098.1164,-251.2022 2087.8242,-248.6882 2088.5029,-255.6552"/>
</g>
<!-- [root] module.lexlambda.data.aws_iam_policy_document.withintent -->
<g id="node9" class="node">
<title>[root] module.lexlambda.data.aws_iam_policy_document.withintent</title>
<polygon fill="none" stroke="#000000" points="1266.4827,-252 809.4827,-252 809.4827,-216 1266.4827,-216 1266.4827,-252"/>
<text text-anchor="middle" x="1037.9827" y="-230.3" font-family="Times,serif" font-size="14.00" fill="#000000">module.lexlambda.data.aws_iam_policy_document.withintent</text>
</g>
<!-- [root] module.lexlambda.aws_iam_role_policy.withintent&#45;&gt;[root] module.lexlambda.data.aws_iam_policy_document.withintent -->
<g id="edge10" class="edge">
<title>[root] module.lexlambda.aws_iam_role_policy.withintent&#45;&gt;[root] module.lexlambda.data.aws_iam_policy_document.withintent</title>
<path fill="none" stroke="#000000" d="M1380.5468,-287.9707C1314.1463,-277.5094 1230.4621,-264.325 1162.4274,-253.6062"/>
<polygon fill="#000000" stroke="#000000" points="1162.9298,-250.1422 1152.5069,-252.0432 1161.8403,-257.0569 1162.9298,-250.1422"/>
</g>
<!-- [root] module.lexlambda.var.policy -->
<g id="node15" class="node">
<title>[root] module.lexlambda.var.policy</title>
<ellipse fill="none" stroke="#000000" cx="1494.9827" cy="-234" rx="172.4698" ry="18"/>
<text text-anchor="middle" x="1494.9827" y="-230.3" font-family="Times,serif" font-size="14.00" fill="#000000">[root] module.lexlambda.var.policy</text>
</g>
<!-- [root] module.lexlambda.aws_iam_role_policy.withintent&#45;&gt;[root] module.lexlambda.var.policy -->
<g id="edge11" class="edge">
<title>[root] module.lexlambda.aws_iam_role_policy.withintent&#45;&gt;[root] module.lexlambda.var.policy</title>
<path fill="none" stroke="#000000" d="M1494.9827,-287.8314C1494.9827,-280.131 1494.9827,-270.9743 1494.9827,-262.4166"/>
<polygon fill="#000000" stroke="#000000" points="1498.4828,-262.4132 1494.9827,-252.4133 1491.4828,-262.4133 1498.4828,-262.4132"/>
</g>
<!-- [root] module.lexlambda.var.policyname -->
<g id="node16" class="node">
<title>[root] module.lexlambda.var.policyname</title>
<ellipse fill="none" stroke="#000000" cx="1882.9827" cy="-234" rx="197.665" ry="18"/>
<text text-anchor="middle" x="1882.9827" y="-230.3" font-family="Times,serif" font-size="14.00" fill="#000000">[root] module.lexlambda.var.policyname</text>
</g>
<!-- [root] module.lexlambda.aws_iam_role_policy.withintent&#45;&gt;[root] module.lexlambda.var.policyname -->
<g id="edge12" class="edge">
<title>[root] module.lexlambda.aws_iam_role_policy.withintent&#45;&gt;[root] module.lexlambda.var.policyname</title>
<path fill="none" stroke="#000000" d="M1592.1405,-287.9707C1651.2364,-277.0045 1726.4569,-263.046 1785.5946,-252.072"/>
<polygon fill="#000000" stroke="#000000" points="1786.4969,-255.4644 1795.6905,-250.1986 1785.2197,-248.5819 1786.4969,-255.4644"/>
</g>
<!-- [root] module.lexlambda.aws_iam_role_policy_attachment.withintent -->
<g id="node6" class="node">
<title>[root] module.lexlambda.aws_iam_role_policy_attachment.withintent</title>
<polygon fill="none" stroke="#000000" points="4899.4827,-324 4432.4827,-324 4432.4827,-288 4899.4827,-288 4899.4827,-324"/>
<text text-anchor="middle" x="4665.9827" y="-302.3" font-family="Times,serif" font-size="14.00" fill="#000000">module.lexlambda.aws_iam_role_policy_attachment.withintent</text>
</g>
<!-- [root] module.lexlambda.aws_iam_role_policy_attachment.withintent&#45;&gt;[root] module.lexlambda.aws_iam_role.withintent -->
<g id="edge13" class="edge">
<title>[root] module.lexlambda.aws_iam_role_policy_attachment.withintent&#45;&gt;[root] module.lexlambda.aws_iam_role.withintent</title>
<path fill="none" stroke="#000000" d="M4432.2329,-288.472C4429.1305,-288.3091 4426.0459,-288.1516 4422.9827,-288 3684.6839,-251.4531 2803.2065,-239.1778 2435.9383,-235.4599"/>
<polygon fill="#000000" stroke="#000000" points="2435.7912,-231.9583 2425.7566,-235.3577 2435.7209,-238.958 2435.7912,-231.9583"/>
</g>
<!-- [root] module.lexlambda.aws_lambda_function.withintent -->
<g id="node7" class="node">
<title>[root] module.lexlambda.aws_lambda_function.withintent</title>
<polygon fill="none" stroke="#000000" points="3234.4827,-396 2849.4827,-396 2849.4827,-360 3234.4827,-360 3234.4827,-396"/>
<text text-anchor="middle" x="3041.9827" y="-374.3" font-family="Times,serif" font-size="14.00" fill="#000000">module.lexlambda.aws_lambda_function.withintent</text>
</g>
<!-- [root] module.lexlambda.aws_lambda_function.withintent&#45;&gt;[root] module.lexlambda.aws_iam_role_policy.withintent -->
<g id="edge14" class="edge">
<title>[root] module.lexlambda.aws_lambda_function.withintent&#45;&gt;[root] module.lexlambda.aws_iam_role_policy.withintent</title>
<path fill="none" stroke="#000000" d="M2849.2796,-373.3903C2589.3013,-366.4693 2111.5547,-351.2786 1693.3554,-324.0709"/>
<polygon fill="#000000" stroke="#000000" points="1693.3844,-320.5655 1683.1774,-323.4056 1692.9277,-327.5505 1693.3844,-320.5655"/>
</g>
<!-- [root] module.lexlambda.aws_lambda_function.withintent&#45;&gt;[root] module.lexlambda.aws_iam_role_policy_attachment.withintent -->
<g id="edge15" class="edge">
<title>[root] module.lexlambda.aws_lambda_function.withintent&#45;&gt;[root] module.lexlambda.aws_iam_role_policy_attachment.withintent</title>
<path fill="none" stroke="#000000" d="M3234.4985,-372.5909C3499.3743,-364.6694 3991.3545,-348.2378 4422.0669,-324.0399"/>
<polygon fill="#000000" stroke="#000000" points="4422.4426,-327.5244 4432.2296,-323.4669 4422.0484,-320.5355 4422.4426,-327.5244"/>
</g>
<!-- [root] module.lexlambda.var.description -->
<g id="node17" class="node">
<title>[root] module.lexlambda.var.description</title>
<ellipse fill="none" stroke="#000000" cx="5113.9827" cy="-306" rx="196.8651" ry="18"/>
<text text-anchor="middle" x="5113.9827" y="-302.3" font-family="Times,serif" font-size="14.00" fill="#000000">[root] module.lexlambda.var.description</text>
</g>
<!-- [root] module.lexlambda.aws_lambda_function.withintent&#45;&gt;[root] module.lexlambda.var.description -->
<g id="edge16" class="edge">
<title>[root] module.lexlambda.aws_lambda_function.withintent&#45;&gt;[root] module.lexlambda.var.description</title>
<path fill="none" stroke="#000000" d="M3234.65,-376.1509C3573.505,-372.0672 4298.1681,-359.6189 4908.9827,-324 4928.1288,-322.8835 4948.2592,-321.4438 4968.1193,-319.8655"/>
<polygon fill="#000000" stroke="#000000" points="4968.4706,-323.3486 4978.1562,-319.0546 4967.9068,-316.3714 4968.4706,-323.3486"/>
</g>
<!-- [root] module.lexlambda.var.envvar -->
<g id="node18" class="node">
<title>[root] module.lexlambda.var.envvar</title>
<ellipse fill="none" stroke="#000000" cx="1876.9827" cy="-306" rx="176.2688" ry="18"/>
<text text-anchor="middle" x="1876.9827" y="-302.3" font-family="Times,serif" font-size="14.00" fill="#000000">[root] module.lexlambda.var.envvar</text>
</g>
<!-- [root] module.lexlambda.aws_lambda_function.withintent&#45;&gt;[root] module.lexlambda.var.envvar -->
<g id="edge17" class="edge">
<title>[root] module.lexlambda.aws_lambda_function.withintent&#45;&gt;[root] module.lexlambda.var.envvar</title>
<path fill="none" stroke="#000000" d="M2849.3657,-369.7757C2651.6337,-360.772 2335.1048,-344.8026 2061.9827,-324 2045.5752,-322.7503 2028.364,-321.2843 2011.3203,-319.7377"/>
<polygon fill="#000000" stroke="#000000" points="2011.59,-316.2479 2001.3119,-318.8188 2010.95,-323.2185 2011.59,-316.2479"/>
</g>
<!-- [root] module.lexlambda.var.filename -->
<g id="node19" class="node">
<title>[root] module.lexlambda.var.filename</title>
<ellipse fill="none" stroke="#000000" cx="2255.9827" cy="-306" rx="184.6673" ry="18"/>
<text text-anchor="middle" x="2255.9827" y="-302.3" font-family="Times,serif" font-size="14.00" fill="#000000">[root] module.lexlambda.var.filename</text>
</g>
<!-- [root] module.lexlambda.aws_lambda_function.withintent&#45;&gt;[root] module.lexlambda.var.filename -->
<g id="edge18" class="edge">
<title>[root] module.lexlambda.aws_lambda_function.withintent&#45;&gt;[root] module.lexlambda.var.filename</title>
<path fill="none" stroke="#000000" d="M2849.3452,-360.5046C2733.5788,-349.9716 2583.3274,-336.2677 2449.9827,-324 2433.8741,-322.518 2417.0136,-320.9615 2400.2444,-319.4102"/>
<polygon fill="#000000" stroke="#000000" points="2400.1026,-315.8821 2389.8225,-318.4456 2399.4574,-322.8524 2400.1026,-315.8821"/>
</g>
<!-- [root] module.lexlambda.var.handler -->
<g id="node20" class="node">
<title>[root] module.lexlambda.var.handler</title>
<ellipse fill="none" stroke="#000000" cx="2638.9827" cy="-306" rx="180.0681" ry="18"/>
<text text-anchor="middle" x="2638.9827" y="-302.3" font-family="Times,serif" font-size="14.00" fill="#000000">[root] module.lexlambda.var.handler</text>
</g>
<!-- [root] module.lexlambda.aws_lambda_function.withintent&#45;&gt;[root] module.lexlambda.var.handler -->
<g id="edge19" class="edge">
<title>[root] module.lexlambda.aws_lambda_function.withintent&#45;&gt;[root] module.lexlambda.var.handler</title>
<path fill="none" stroke="#000000" d="M2941.0688,-359.9707C2878.678,-348.824 2798.9834,-334.5857 2737.1167,-323.5326"/>
<polygon fill="#000000" stroke="#000000" points="2737.4158,-320.0307 2726.9561,-321.7173 2736.1846,-326.9216 2737.4158,-320.0307"/>
</g>
<!-- [root] module.lexlambda.var.memory_size -->
<g id="node21" class="node">
<title>[root] module.lexlambda.var.memory_size</title>
<ellipse fill="none" stroke="#000000" cx="3041.9827" cy="-306" rx="205.2636" ry="18"/>
<text text-anchor="middle" x="3041.9827" y="-302.3" font-family="Times,serif" font-size="14.00" fill="#000000">[root] module.lexlambda.var.memory_size</text>
</g>
<!-- [root] module.lexlambda.aws_lambda_function.withintent&#45;&gt;[root] module.lexlambda.var.memory_size -->
<g id="edge20" class="edge">
<title>[root] module.lexlambda.aws_lambda_function.withintent&#45;&gt;[root] module.lexlambda.var.memory_size</title>
<path fill="none" stroke="#000000" d="M3041.9827,-359.8314C3041.9827,-352.131 3041.9827,-342.9743 3041.9827,-334.4166"/>
<polygon fill="#000000" stroke="#000000" points="3045.4828,-334.4132 3041.9827,-324.4133 3038.4828,-334.4133 3045.4828,-334.4132"/>
</g>
<!-- [root] module.lexlambda.var.name -->
<g id="node22" class="node">
<title>[root] module.lexlambda.var.name</title>
<ellipse fill="none" stroke="#000000" cx="1118.9827" cy="-306" rx="169.77" ry="18"/>
<text text-anchor="middle" x="1118.9827" y="-302.3" font-family="Times,serif" font-size="14.00" fill="#000000">[root] module.lexlambda.var.name</text>
</g>
<!-- [root] module.lexlambda.aws_lambda_function.withintent&#45;&gt;[root] module.lexlambda.var.name -->
<g id="edge21" class="edge">
<title>[root] module.lexlambda.aws_lambda_function.withintent&#45;&gt;[root] module.lexlambda.var.name</title>
<path fill="none" stroke="#000000" d="M2849.4191,-373.7235C2460.7948,-364.8149 1594.4922,-343.4753 1297.9827,-324 1281.4392,-322.9134 1264.0602,-321.5035 1246.9037,-319.9511"/>
<polygon fill="#000000" stroke="#000000" points="1247.1151,-316.4558 1236.8358,-319.022 1246.4718,-323.4262 1247.1151,-316.4558"/>
</g>
<!-- [root] module.lexlambda.var.runtime -->
<g id="node23" class="node">
<title>[root] module.lexlambda.var.runtime</title>
<ellipse fill="none" stroke="#000000" cx="3446.9827" cy="-306" rx="181.168" ry="18"/>
<text text-anchor="middle" x="3446.9827" y="-302.3" font-family="Times,serif" font-size="14.00" fill="#000000">[root] module.lexlambda.var.runtime</text>
</g>
<!-- [root] module.lexlambda.aws_lambda_function.withintent&#45;&gt;[root] module.lexlambda.var.runtime -->
<g id="edge22" class="edge">
<title>[root] module.lexlambda.aws_lambda_function.withintent&#45;&gt;[root] module.lexlambda.var.runtime</title>
<path fill="none" stroke="#000000" d="M3143.3975,-359.9707C3206.0978,-348.824 3286.1879,-334.5857 3348.3617,-323.5326"/>
<polygon fill="#000000" stroke="#000000" points="3349.3397,-326.9137 3358.5727,-321.7173 3348.1144,-320.0218 3349.3397,-326.9137"/>
</g>
<!-- [root] module.lexlambda.var.source_code_hash -->
<g id="node24" class="node">
<title>[root] module.lexlambda.var.source_code_hash</title>
<ellipse fill="none" stroke="#000000" cx="5557.9827" cy="-306" rx="229.3593" ry="18"/>
<text text-anchor="middle" x="5557.9827" y="-302.3" font-family="Times,serif" font-size="14.00" fill="#000000">[root] module.lexlambda.var.source_code_hash</text>
</g>
<!-- [root] module.lexlambda.aws_lambda_function.withintent&#45;&gt;[root] module.lexlambda.var.source_code_hash -->
<g id="edge23" class="edge">
<title>[root] module.lexlambda.aws_lambda_function.withintent&#45;&gt;[root] module.lexlambda.var.source_code_hash</title>
<path fill="none" stroke="#000000" d="M3234.4844,-376.7985C3626.9547,-373.6067 4547.788,-362.3273 5319.9827,-324 5342.7065,-322.8721 5366.6309,-321.4 5390.1957,-319.7833"/>
<polygon fill="#000000" stroke="#000000" points="5390.5355,-323.2682 5400.2683,-319.0821 5390.0494,-316.2851 5390.5355,-323.2682"/>
</g>
<!-- [root] module.lexlambda.var.timeout -->
<g id="node25" class="node">
<title>[root] module.lexlambda.var.timeout</title>
<ellipse fill="none" stroke="#000000" cx="3826.9827" cy="-306" rx="180.8681" ry="18"/>
<text text-anchor="middle" x="3826.9827" y="-302.3" font-family="Times,serif" font-size="14.00" fill="#000000">[root] module.lexlambda.var.timeout</text>
</g>
<!-- [root] module.lexlambda.aws_lambda_function.withintent&#45;&gt;[root] module.lexlambda.var.timeout -->
<g id="edge24" class="edge">
<title>[root] module.lexlambda.aws_lambda_function.withintent&#45;&gt;[root] module.lexlambda.var.timeout</title>
<path fill="none" stroke="#000000" d="M3234.5991,-360.7128C3351.0909,-350.2095 3502.5897,-336.4644 3636.9827,-324 3652.8293,-322.5303 3669.4179,-320.9784 3685.9123,-319.427"/>
<polygon fill="#000000" stroke="#000000" points="3686.5349,-322.884 3696.1627,-318.4618 3685.8786,-315.9148 3686.5349,-322.884"/>
</g>
<!-- [root] module.lexlambda.var.vpc_config -->
<g id="node26" class="node">
<title>[root] module.lexlambda.var.vpc_config</title>
<ellipse fill="none" stroke="#000000" cx="4219.9827" cy="-306" rx="194.1657" ry="18"/>
<text text-anchor="middle" x="4219.9827" y="-302.3" font-family="Times,serif" font-size="14.00" fill="#000000">[root] module.lexlambda.var.vpc_config</text>
</g>
<!-- [root] module.lexlambda.aws_lambda_function.withintent&#45;&gt;[root] module.lexlambda.var.vpc_config -->
<g id="edge25" class="edge">
<title>[root] module.lexlambda.aws_lambda_function.withintent&#45;&gt;[root] module.lexlambda.var.vpc_config</title>
<path fill="none" stroke="#000000" d="M3234.4991,-369.221C3431.2543,-359.8062 3745.5893,-343.5423 4016.9827,-324 4035.0805,-322.6968 4054.0739,-321.1934 4072.8777,-319.6223"/>
<polygon fill="#000000" stroke="#000000" points="4073.321,-323.0974 4082.9915,-318.7694 4072.7327,-316.1222 4073.321,-323.0974"/>
</g>
<!-- [root] module.lexlambda.aws_lambda_permission.withintent -->
<g id="node8" class="node">
<title>[root] module.lexlambda.aws_lambda_permission.withintent</title>
<polygon fill="none" stroke="#000000" points="2075.9827,-396 1671.9827,-396 1671.9827,-360 2075.9827,-360 2075.9827,-396"/>
<text text-anchor="middle" x="1873.9827" y="-374.3" font-family="Times,serif" font-size="14.00" fill="#000000">module.lexlambda.aws_lambda_permission.withintent</text>
</g>
<!-- [root] module.lexlambda.aws_lambda_permission.withintent&#45;&gt;[root] module.lexlambda.var.name -->
<g id="edge27" class="edge">
<title>[root] module.lexlambda.aws_lambda_permission.withintent&#45;&gt;[root] module.lexlambda.var.name</title>
<path fill="none" stroke="#000000" d="M1678.3311,-359.9877C1566.8496,-349.6417 1424.5669,-336.2981 1297.9827,-324 1283.0647,-322.5507 1267.4497,-321.0122 1251.9232,-319.4689"/>
<polygon fill="#000000" stroke="#000000" points="1252.0387,-315.9632 1241.7411,-318.455 1251.345,-322.9288 1252.0387,-315.9632"/>
</g>
<!-- [root] module.lexlambda.var.lambdapermmisions -->
<g id="node27" class="node">
<title>[root] module.lexlambda.var.lambdapermmisions</title>
<ellipse fill="none" stroke="#000000" cx="646.9827" cy="-162" rx="238.5577" ry="18"/>
<text text-anchor="middle" x="646.9827" y="-158.3" font-family="Times,serif" font-size="14.00" fill="#000000">[root] module.lexlambda.var.lambdapermmisions</text>
</g>
<!-- [root] module.lexlambda.aws_lambda_permission.withintent&#45;&gt;[root] module.lexlambda.var.lambdapermmisions -->
<g id="edge26" class="edge">
<title>[root] module.lexlambda.aws_lambda_permission.withintent&#45;&gt;[root] module.lexlambda.var.lambdapermmisions</title>
<path fill="none" stroke="#000000" d="M1671.8681,-370.7686C1418.3553,-361.0061 1008.4143,-342.6727 939.9827,-324 836.402,-295.7363 729.7527,-223.9172 678.3908,-186.1125"/>
<polygon fill="#000000" stroke="#000000" points="680.4512,-183.2831 670.3369,-180.1284 676.2764,-188.9019 680.4512,-183.2831"/>
</g>
<!-- [root] module.lexlambda.var.account_id -->
<g id="node28" class="node">
<title>[root] module.lexlambda.var.account_id</title>
<ellipse fill="none" stroke="#000000" cx="194.9827" cy="-162" rx="194.9654" ry="18"/>
<text text-anchor="middle" x="194.9827" y="-158.3" font-family="Times,serif" font-size="14.00" fill="#000000">[root] module.lexlambda.var.account_id</text>
</g>
<!-- [root] module.lexlambda.data.aws_iam_policy_document.withintent&#45;&gt;[root] module.lexlambda.var.account_id -->
<g id="edge28" class="edge">
<title>[root] module.lexlambda.data.aws_iam_policy_document.withintent&#45;&gt;[root] module.lexlambda.var.account_id</title>
<path fill="none" stroke="#000000" d="M822.4127,-215.9826C698.527,-205.5782 539.9897,-192.1789 398.9827,-180 381.8824,-178.523 363.9771,-176.963 346.1785,-175.4038"/>
<polygon fill="#000000" stroke="#000000" points="345.9857,-171.8735 335.7182,-174.4865 345.3742,-178.8468 345.9857,-171.8735"/>
</g>
<!-- [root] module.lexlambda.var.region_name -->
<g id="node29" class="node">
<title>[root] module.lexlambda.var.region_name</title>
<ellipse fill="none" stroke="#000000" cx="1107.9827" cy="-162" rx="204.1638" ry="18"/>
<text text-anchor="middle" x="1107.9827" y="-158.3" font-family="Times,serif" font-size="14.00" fill="#000000">[root] module.lexlambda.var.region_name</text>
</g>
<!-- [root] module.lexlambda.data.aws_iam_policy_document.withintent&#45;&gt;[root] module.lexlambda.var.region_name -->
<g id="edge29" class="edge">
<title>[root] module.lexlambda.data.aws_iam_policy_document.withintent&#45;&gt;[root] module.lexlambda.var.region_name</title>
<path fill="none" stroke="#000000" d="M1055.6467,-215.8314C1063.9559,-207.2848 1074.0091,-196.9443 1083.0745,-187.6198"/>
<polygon fill="#000000" stroke="#000000" points="1085.6196,-190.023 1090.0809,-180.4133 1080.6006,-185.1435 1085.6196,-190.023"/>
</g>
<!-- [root] meta.count&#45;boundary (count boundary fixup) -->
<g id="node12" class="node">
<title>[root] meta.count&#45;boundary (count boundary fixup)</title>
<ellipse fill="none" stroke="#000000" cx="2642.9827" cy="-450" rx="248.0561" ry="18"/>
<text text-anchor="middle" x="2642.9827" y="-446.3" font-family="Times,serif" font-size="14.00" fill="#000000">[root] meta.count&#45;boundary (count boundary fixup)</text>
</g>
<!-- [root] meta.count&#45;boundary (count boundary fixup)&#45;&gt;[root] module.lexlambda.aws_lambda_function.withintent -->
<g id="edge4" class="edge">
<title>[root] meta.count&#45;boundary (count boundary fixup)&#45;&gt;[root] module.lexlambda.aws_lambda_function.withintent</title>
<path fill="none" stroke="#000000" d="M2735.7755,-433.2554C2794.336,-422.6881 2870.2783,-408.9843 2931.8823,-397.8678"/>
<polygon fill="#000000" stroke="#000000" points="2932.8125,-401.2565 2942.032,-396.0362 2931.5693,-394.3678 2932.8125,-401.2565"/>
</g>
<!-- [root] meta.count&#45;boundary (count boundary fixup)&#45;&gt;[root] module.lexlambda.aws_lambda_permission.withintent -->
<g id="edge5" class="edge">
<title>[root] meta.count&#45;boundary (count boundary fixup)&#45;&gt;[root] module.lexlambda.aws_lambda_permission.withintent</title>
<path fill="none" stroke="#000000" d="M2490.5936,-435.7321C2371.9576,-424.6244 2206.2097,-409.1058 2076.4337,-396.9551"/>
<polygon fill="#000000" stroke="#000000" points="2076.6483,-393.46 2066.3655,-396.0124 2075.9957,-400.4295 2076.6483,-393.46"/>
</g>
<!-- [root] var.common_tags -->
<g id="node30" class="node">
<title>[root] var.common_tags</title>
<ellipse fill="none" stroke="#000000" cx="2261.9827" cy="-90" rx="120.7786" ry="18"/>
<text text-anchor="middle" x="2261.9827" y="-86.3" font-family="Times,serif" font-size="14.00" fill="#000000">[root] var.common_tags</text>
</g>
<!-- [root] module.lexlambda.var.common_tags&#45;&gt;[root] var.common_tags -->
<g id="edge31" class="edge">
<title>[root] module.lexlambda.var.common_tags&#45;&gt;[root] var.common_tags</title>
<path fill="none" stroke="#000000" d="M2261.9827,-143.8314C2261.9827,-136.131 2261.9827,-126.9743 2261.9827,-118.4166"/>
<polygon fill="#000000" stroke="#000000" points="2265.4828,-118.4132 2261.9827,-108.4133 2258.4828,-118.4133 2265.4828,-118.4132"/>
</g>
<!-- [root] var.name -->
<g id="node32" class="node">
<title>[root] var.name</title>
<ellipse fill="none" stroke="#000000" cx="1371.9827" cy="-90" rx="81.7856" ry="18"/>
<text text-anchor="middle" x="1371.9827" y="-86.3" font-family="Times,serif" font-size="14.00" fill="#000000">[root] var.name</text>
</g>
<!-- [root] module.lexlambda.var.role_name&#45;&gt;[root] var.name -->
<g id="edge39" class="edge">
<title>[root] module.lexlambda.var.role_name&#45;&gt;[root] var.name</title>
<path fill="none" stroke="#000000" d="M1645.9835,-145.572C1584.5641,-133.1151 1500.9969,-116.1663 1442.3541,-104.2725"/>
<polygon fill="#000000" stroke="#000000" points="1442.9319,-100.8185 1432.4357,-102.2609 1441.5405,-107.6788 1442.9319,-100.8185"/>
</g>
<!-- [root] module.lexlambda.var.policyname&#45;&gt;[root] var.name -->
<g id="edge37" class="edge">
<title>[root] module.lexlambda.var.policyname&#45;&gt;[root] var.name</title>
<path fill="none" stroke="#000000" d="M1757.2616,-220.0639C1672.0892,-209.6564 1567.7265,-194.7429 1525.9827,-180 1480.5376,-163.9498 1433.4297,-134.1503 1403.4778,-113.2518"/>
<polygon fill="#000000" stroke="#000000" points="1405.3128,-110.2626 1395.1276,-107.3449 1401.2702,-115.9773 1405.3128,-110.2626"/>
</g>
<!-- [root] var.description -->
<g id="node31" class="node">
<title>[root] var.description</title>
<ellipse fill="none" stroke="#000000" cx="5113.9827" cy="-234" rx="109.381" ry="18"/>
<text text-anchor="middle" x="5113.9827" y="-230.3" font-family="Times,serif" font-size="14.00" fill="#000000">[root] var.description</text>
</g>
<!-- [root] module.lexlambda.var.description&#45;&gt;[root] var.description -->
<g id="edge32" class="edge">
<title>[root] module.lexlambda.var.description&#45;&gt;[root] var.description</title>
<path fill="none" stroke="#000000" d="M5113.9827,-287.8314C5113.9827,-280.131 5113.9827,-270.9743 5113.9827,-262.4166"/>
<polygon fill="#000000" stroke="#000000" points="5117.4828,-262.4132 5113.9827,-252.4133 5110.4828,-262.4133 5117.4828,-262.4132"/>
</g>
<!-- [root] module.lexlambda.var.name&#45;&gt;[root] var.name -->
<g id="edge36" class="edge">
<title>[root] module.lexlambda.var.name&#45;&gt;[root] var.name</title>
<path fill="none" stroke="#000000" d="M1197.4982,-289.9294C1224.0391,-281.7476 1252.591,-269.6583 1274.9827,-252 1320.1568,-216.3752 1348.9805,-153.4595 1362.6411,-117.414"/>
<polygon fill="#000000" stroke="#000000" points="1365.9345,-118.5985 1366.0929,-108.0048 1359.3628,-116.1875 1365.9345,-118.5985"/>
</g>
<!-- [root] module.lexlambda.var.source_code_hash&#45;&gt;[root] data.archive_file.lambda -->
<g id="edge40" class="edge">
<title>[root] module.lexlambda.var.source_code_hash&#45;&gt;[root] data.archive_file.lambda</title>
<path fill="none" stroke="#000000" d="M5589.9523,-288.0171C5606.5993,-278.6532 5627.1417,-267.098 5644.9492,-257.0813"/>
<polygon fill="#000000" stroke="#000000" points="5646.9772,-259.9564 5653.977,-252.0032 5643.5453,-253.8553 5646.9772,-259.9564"/>
</g>
<!-- [root] module.lexlambda.var.lambdapermmisions&#45;&gt;[root] data.aws_caller_identity.current -->
<g id="edge33" class="edge">
<title>[root] module.lexlambda.var.lambdapermmisions&#45;&gt;[root] data.aws_caller_identity.current</title>
<path fill="none" stroke="#000000" d="M646.9827,-143.8314C646.9827,-136.131 646.9827,-126.9743 646.9827,-118.4166"/>
<polygon fill="#000000" stroke="#000000" points="650.4828,-118.4132 646.9827,-108.4133 643.4828,-118.4133 650.4828,-118.4132"/>
</g>
<!-- [root] module.lexlambda.var.lambdapermmisions&#45;&gt;[root] data.aws_region.current -->
<g id="edge34" class="edge">
<title>[root] module.lexlambda.var.lambdapermmisions&#45;&gt;[root] data.aws_region.current</title>
<path fill="none" stroke="#000000" d="M729.2489,-145.0282C779.9976,-134.5585 845.3518,-121.0757 898.6672,-110.0765"/>
<polygon fill="#000000" stroke="#000000" points="899.3895,-113.5013 908.4761,-108.0529 897.9751,-106.6457 899.3895,-113.5013"/>
</g>
<!-- [root] module.lexlambda.var.lambdapermmisions&#45;&gt;[root] var.name -->
<g id="edge35" class="edge">
<title>[root] module.lexlambda.var.lambdapermmisions&#45;&gt;[root] var.name</title>
<path fill="none" stroke="#000000" d="M791.5203,-147.6459C939.7832,-132.9219 1165.4194,-110.5139 1287.0964,-98.4301"/>
<polygon fill="#000000" stroke="#000000" points="1287.5026,-101.9071 1297.1078,-97.4359 1286.8108,-94.9413 1287.5026,-101.9071"/>
</g>
<!-- [root] module.lexlambda.var.account_id&#45;&gt;[root] data.aws_caller_identity.current -->
<g id="edge30" class="edge">
<title>[root] module.lexlambda.var.account_id&#45;&gt;[root] data.aws_caller_identity.current</title>
<path fill="none" stroke="#000000" d="M292.7816,-146.4214C360.4643,-135.6401 451.0693,-121.2075 523.6975,-109.6383"/>
<polygon fill="#000000" stroke="#000000" points="524.4973,-113.0552 533.8221,-108.0256 523.396,-106.1423 524.4973,-113.0552"/>
</g>
<!-- [root] module.lexlambda.var.region_name&#45;&gt;[root] data.aws_region.current -->
<g id="edge38" class="edge">
<title>[root] module.lexlambda.var.region_name&#45;&gt;[root] data.aws_region.current</title>
<path fill="none" stroke="#000000" d="M1080.0093,-144.0171C1065.7104,-134.825 1048.127,-123.5213 1032.7471,-113.6342"/>
<polygon fill="#000000" stroke="#000000" points="1034.2921,-110.4667 1023.9877,-108.0032 1030.5068,-116.3549 1034.2921,-110.4667"/>
</g>
<!-- [root] provider.archive (close) -->
<g id="node33" class="node">
<title>[root] provider.archive (close)</title>
<ellipse fill="none" stroke="#000000" cx="4607.9827" cy="-378" rx="149.4735" ry="18"/>
<text text-anchor="middle" x="4607.9827" y="-374.3" font-family="Times,serif" font-size="14.00" fill="#000000">[root] provider.archive (close)</text>
</g>
<!-- [root] provider.archive (close)&#45;&gt;[root] data.archive_file.lambda -->
<g id="edge41" class="edge">
<title>[root] provider.archive (close)&#45;&gt;[root] data.archive_file.lambda</title>
<path fill="none" stroke="#000000" d="M4757.2672,-376.6363C5068.4446,-373.0587 5760.6574,-360.9674 5795.9827,-324 5807.0366,-312.4323 5804.444,-301.5796 5795.9827,-288 5787.6305,-274.5955 5774.8719,-264.4243 5760.9649,-256.7383"/>
<polygon fill="#000000" stroke="#000000" points="5762.1968,-253.4387 5751.695,-252.0374 5759.0308,-259.6818 5762.1968,-253.4387"/>
</g>
<!-- [root] provider.aws (close) -->
<g id="node34" class="node">
<title>[root] provider.aws (close)</title>
<ellipse fill="none" stroke="#000000" cx="3041.9827" cy="-450" rx="132.6765" ry="18"/>
<text text-anchor="middle" x="3041.9827" y="-446.3" font-family="Times,serif" font-size="14.00" fill="#000000">[root] provider.aws (close)</text>
</g>
<!-- [root] provider.aws (close)&#45;&gt;[root] module.lexlambda.aws_lambda_function.withintent -->
<g id="edge42" class="edge">
<title>[root] provider.aws (close)&#45;&gt;[root] module.lexlambda.aws_lambda_function.withintent</title>
<path fill="none" stroke="#000000" d="M3041.9827,-431.8314C3041.9827,-424.131 3041.9827,-414.9743 3041.9827,-406.4166"/>
<polygon fill="#000000" stroke="#000000" points="3045.4828,-406.4132 3041.9827,-396.4133 3038.4828,-406.4133 3045.4828,-406.4132"/>
</g>
<!-- [root] provider.aws (close)&#45;&gt;[root] module.lexlambda.aws_lambda_permission.withintent -->
<g id="edge43" class="edge">
<title>[root] provider.aws (close)&#45;&gt;[root] module.lexlambda.aws_lambda_permission.withintent</title>
<path fill="none" stroke="#000000" d="M2948.5195,-437.1611C2932.3562,-435.2247 2915.6996,-433.4078 2899.9827,-432 2619.2141,-406.8504 2294.0936,-392.1728 2086.3811,-384.6223"/>
<polygon fill="#000000" stroke="#000000" points="2086.3909,-381.1204 2076.271,-384.257 2086.1381,-388.1159 2086.3909,-381.1204"/>
</g>
<!-- [root] root -->
<g id="node35" class="node">
<title>[root] root</title>
<ellipse fill="none" stroke="#000000" cx="3041.9827" cy="-522" rx="58.4896" ry="18"/>
<text text-anchor="middle" x="3041.9827" y="-518.3" font-family="Times,serif" font-size="14.00" fill="#000000">[root] root</text>
</g>
<!-- [root] root&#45;&gt;[root] meta.count&#45;boundary (count boundary fixup) -->
<g id="edge44" class="edge">
<title>[root] root&#45;&gt;[root] meta.count&#45;boundary (count boundary fixup)</title>
<path fill="none" stroke="#000000" d="M2991.4491,-512.8812C2929.9134,-501.777 2824.4465,-482.7453 2745.6201,-468.521"/>
<polygon fill="#000000" stroke="#000000" points="2746.1203,-465.0548 2735.6577,-466.7233 2744.8771,-471.9436 2746.1203,-465.0548"/>
</g>
<!-- [root] root&#45;&gt;[root] provider.archive (close) -->
<g id="edge45" class="edge">
<title>[root] root&#45;&gt;[root] provider.archive (close)</title>
<path fill="none" stroke="#000000" d="M3098.1792,-516.8325C3322.2442,-496.2288 4155.324,-419.6238 4478.5965,-389.8976"/>
<polygon fill="#000000" stroke="#000000" points="4479.3083,-393.347 4488.9458,-388.9459 4478.6673,-386.3764 4479.3083,-393.347"/>
</g>
<!-- [root] root&#45;&gt;[root] provider.aws (close) -->
<g id="edge46" class="edge">
<title>[root] root&#45;&gt;[root] provider.aws (close)</title>
<path fill="none" stroke="#000000" d="M3041.9827,-503.8314C3041.9827,-496.131 3041.9827,-486.9743 3041.9827,-478.4166"/>
<polygon fill="#000000" stroke="#000000" points="3045.4828,-478.4132 3041.9827,-468.4133 3038.4828,-478.4133 3045.4828,-478.4132"/>
</g>
</g>
</svg>
